<svg xmlns="http://www.w3.org/2000/svg" viewBox="0 0 270 270"><defs><style>.cls-1{fill:#fff;}</style></defs><title>git</title><g id="Layer_2" data-name="Layer 2"><g id="Layer_2-2" data-name="Layer 2"><g id="Layer_1-2" data-name="Layer 1-2"><path class="cls-1" d="M262.92,117.91,152.09,7.08a24.17,24.17,0,0,0-34.18,0L96,29l27.14,27.14a23.37,23.37,0,0,1,32,32l26.67,26.66a23.48,23.48,0,1,1-8.3,8.3L146.86,96.47a23.8,23.8,0,0,1-6,2.47V171a23.49,23.49,0,1,1-11.74,0V98.94a23.19,23.19,0,0,1-10.73-6,23.43,23.43,0,0,1-3.56-28.47L87.69,37.3,7.08,117.91a24.17,24.17,0,0,0,0,34.18L117.91,262.92a24.17,24.17,0,0,0,34.18,0L262.92,152.09A24.17,24.17,0,0,0,262.92,117.91Z"/></g></g></g></svg>