<svg xmlns="http://www.w3.org/2000/svg" viewBox="0 0 180 180"><defs><style>.cls-1{fill:#fff;}</style></defs><title>linkedin</title><g id="Layer_2" data-name="Layer 2"><g id="Layer_2-2" data-name="Layer 2"><g id="Layer_1-2" data-name="Layer 1-2"><path class="cls-1" d="M155,0H25A25,25,0,0,0,0,25V155a25,25,0,0,0,25,25H155a25,25,0,0,0,25-25V25A25,25,0,0,0,155,0ZM55,150H30V65H55ZM42.43,55h-.15C34.82,55,30,49.44,30,42.49A12.12,12.12,0,0,1,42.57,30C50.14,30,54.86,35.4,55,42.49,55,49.43,50.18,55,42.43,55ZM125,150V104.51c0-11-6.12-18.49-16-18.49-7.5,0-11.57,5.06-13.53,9.94-.72,1.75-.51,6.59-.51,9v45H70V65H95V78.08C98.6,72.5,104.25,65,118.69,65c17.89,0,31.3,11.25,31.3,36.37V150Z"/></g></g></g></svg>